<svg xmlns="http://www.w3.org/2000/svg" xmlns:xlink="http://www.w3.org/1999/xlink" width="285.2056603773585" height="116.80566037735849" viewBox="0 0 285.2056603773585 116.80566037735849" class="LogoPreview_base__3tiaW"><g fill="#ead017" color="#ead017" transform="translate(0 9.345) scale(2.3361133)"><svg width="50.0" height="42.0" x="0.0" y="0.0" viewBox="0 0 50 42"><path fill="currentColor" fill-rule="nonzero" d="M21.3 13.56l5.81 12.46-10.95-2.3-5.81-12.46 10.95 2.3zm20.86-9.73l5.81 12.46-10.95-2.3-5.81-12.46 10.95 2.3zm-8.91 36.83L8.44 36.19 16 24.99l12.1 2.54c.05.01.09.01.13.01.09 0 .18-.02.27-.06.01 0 .01-.01.01-.01.03-.01.05-.04.08-.06.03-.02.05-.05.08-.07.03-.03.07-.05.09-.08l8.11-12.01 11.19 2.35-14.81 23.06zm16.45-23.3c.01-.02.02-.03.03-.05.01-.05-.02-.08-.03-.13 0-.07.01-.13-.02-.2-.01-.02.01-.05-.01-.07L43.19 3c-.01-.02-.03-.02-.03-.03-.04-.07-.11-.11-.18-.16-.07-.05-.12-.11-.2-.14-.02-.01-.02-.02-.04-.03L30.22.01c-.04-.01-.08.03-.13.03-.07 0-.13 0-.19.02-.03.01-.06-.01-.08 0-.01.01-.02.03-.03.03-.05.03-.08.07-.12.12-.03.03-.08.03-.11.07l-8.11 12.01-12.1-2.54c-.05-.01-.08.02-.13.02-.07 0-.12 0-.19.02-.03.01-.06-.01-.08.01-.02.01-.02.03-.03.03-.05.03-.08.07-.12.12-.03.03-.08.03-.11.07L.34 22.37c-.02.02 0 .05-.02.08-.04.08-.04.15-.05.23-.01.08-.02.16.01.24.02.03 0 .05.01.08l6.49 13.91c.01.02.03.03.05.05.02.04.04.06.07.09.03.03.05.06.08.08.01.01.01.03.02.04 0 0 .01 0 .01.01.05.03.11.04.17.05.03.01.04.04.06.04l26.2 4.72a.61.61 0 0 0 .48-.12c.03-.02.05-.05.08-.07.03-.03.07-.05.1-.09l15.54-24.18c.02-.02 0-.05.01-.07.02-.04.03-.07.05-.1z"></path></svg></g><path fill="#000000" fill-rule="nonzero" d="M13.96 34.36L0 34.36L0 0L6.88 0L6.88 28.52L13.96 28.52L13.96 34.36ZM23.84 34.68Q19.60 34.68 17.54 32.28Q15.48 29.88 15.48 25.16L15.48 25.16L15.48 0L22.16 0L22.16 24.88Q22.16 26.52 22.48 27.44Q22.80 28.36 23.84 28.36L23.84 28.36Q24.88 28.36 25.20 27.46Q25.52 26.56 25.52 24.88L25.52 24.88L25.52 0L32.20 0L32.20 25.16Q32.20 29.88 30.14 32.28Q28.08 34.68 23.84 34.68L23.84 34.68ZM41.56 34.36L34.84 34.36L34.84 0L41.92 0L45.08 16.44L45.08 0L51.72 0L51.72 34.36L45 34.36L41.56 17.16L41.56 34.36ZM60.52 34.36L53.84 34.36L57.16 0L68.80 0L72.08 34.36L65.56 34.36L65.08 28.80L60.92 28.80L60.52 34.36ZM62.72 5.84L61.44 23.32L64.56 23.32L63.04 5.84L62.72 5.84Z" transform="translate(131.806 0) scale(2.129)"></path><path fill="#000000" fill-rule="nonzero" d="M6.68 34.68L0 34.68L3.32 0.32L14.96 0.32L18.24 34.68L11.72 34.68L11.24 29.12L7.08 29.12L6.68 34.68ZM8.88 6.16L7.60 23.64L10.72 23.64L9.20 6.16L8.88 6.16ZM27.04 34.68L20.32 34.68L20.32 0.32L27.40 0.32L30.56 16.76L30.56 0.32L37.20 0.32L37.20 34.68L30.48 34.68L27.04 17.48L27.04 34.68ZM46 34.68L39.32 34.68L42.64 0.32L54.28 0.32L57.56 34.68L51.04 34.68L50.56 29.12L46.40 29.12L46 34.68ZM48.20 6.16L46.92 23.64L50.04 23.64L48.52 6.16L48.20 6.16ZM73.60 34.68L59.64 34.68L59.64 0.32L66.52 0.32L66.52 28.84L73.60 28.84L73.60 34.68ZM86.16 34.68L79.68 34.68L79.68 23.36L74.20 0.32L81 0.32L82.92 11.96L84.84 0.32L91.64 0.32L86.16 23.36L86.16 34.68ZM103.20 34.68L96.32 34.68L96.32 6.92L92.24 6.92L92.24 0.32L107.28 0.32L107.28 6.92L103.20 6.92L103.20 34.68ZM115.52 34.68L108.88 34.68L108.88 0.32L115.52 0.32L115.52 34.68ZM126.28 35Q122.52 35 120.26 32.64Q118 30.28 118 26.16L118 26.16L118 10.32Q118 5.20 120.04 2.60Q122.08 0 126.44 0L126.44 0Q130.24 0 132.56 2.08Q134.88 4.16 134.88 8.08L134.88 8.08L134.88 14L128.04 14L128.04 8.92Q128.04 7.44 127.68 6.88Q127.32 6.32 126.44 6.32L126.44 6.32Q125.52 6.32 125.18 6.96Q124.84 7.60 124.84 8.84L124.84 8.84L124.84 26.08Q124.84 27.44 125.24 28.06Q125.64 28.68 126.44 28.68L126.44 28.68Q128.04 28.68 128.04 26.08L128.04 26.08L128.04 19.88L134.96 19.88L134.96 26.36Q134.96 35 126.28 35L126.28 35ZM145.40 35Q140.72 35 138.64 32.68Q136.56 30.36 136.56 25.20L136.56 25.20L136.56 21.84L143.32 21.84L143.32 26.12Q143.32 28.68 144.96 28.68L144.96 28.68Q145.88 28.68 146.24 28.14Q146.60 27.60 146.60 26.32L146.60 26.32Q146.60 24.64 146.20 23.54Q145.80 22.44 145.18 21.70Q144.56 20.96 142.96 19.40L142.96 19.40L140 16.44Q136.56 13.08 136.56 9L136.56 9Q136.56 4.60 138.58 2.30Q140.60 0 144.48 0L144.48 0Q149.12 0 151.16 2.46Q153.20 4.92 153.20 10.16L153.20 10.16L146.20 10.16L146.16 7.80Q146.16 7.12 145.78 6.72Q145.40 6.32 144.72 6.32L144.72 6.32Q143.92 6.32 143.52 6.76Q143.12 7.20 143.12 7.96L143.12 7.96Q143.12 9.64 145.04 11.44L145.04 11.44L149.04 15.28Q150.44 16.64 151.36 17.86Q152.28 19.08 152.84 20.74Q153.40 22.40 153.40 24.68L153.40 24.68Q153.40 29.76 151.54 32.38Q149.68 35 145.40 35L145.40 35Z" transform="translate(131.806 81.806) scale(1)"></path></svg>